<svg width="480" height="480" viewBox="0 0 480 480" fill="none" xmlns="http://www.w3.org/2000/svg">
<path d="M60 100C60 77.91 77.91 60 100 60H380C402.09 60 420 77.91 420 100V380C420 402.09 402.09 420 380 420H100C77.91 420 60 402.09 60 380V100Z" fill="#2196F3"/>
<path d="M300 320H193.15V296.17L242.36 242.87C254.51 228.64 260.56 217.35 260.56 208.96C260.56 202.18 259.11 197.01 256.25 193.47C253.37 189.93 249.2 188.17 243.72 188.17C238.33 188.17 233.94 190.53 230.59 195.27C227.23 200 225.54 205.9 225.54 212.98H190C190 203.3 192.34 194.37 197.05 186.17C201.74 177.97 208.26 171.55 216.61 166.93C224.94 162.32 234.27 160 244.58 160C261.11 160 273.88 163.95 282.8 171.82C291.75 179.68 296.22 190.99 296.22 205.73C296.22 211.94 295.09 217.99 292.84 223.87C290.6 229.75 287.12 235.92 282.38 242.39C277.65 248.86 270.03 257.51 259.51 268.34L239.73 291.85H300V320Z" fill="white"/>
</svg>
