<svg width="480" height="480" viewBox="0 0 480 480" fill="none" xmlns="http://www.w3.org/2000/svg">
<path d="M60 100C60 77.91 77.91 60 100 60H380C402.09 60 420 77.91 420 100V380C420 402.09 402.09 420 380 420H100C77.91 420 60 402.09 60 380V100Z" fill="#2196F3"/>
<path d="M217.6 235.31H234.68C248.22 235.31 254.98 228.69 254.98 215.44C254.98 210.28 253.37 206.07 250.15 202.82C246.93 199.56 242.38 197.93 236.51 197.93C231.71 197.93 227.54 199.33 224 202.12C220.46 204.91 218.68 208.39 218.68 212.54H182.48C182.48 204.31 184.77 196.96 189.36 190.52C193.94 184.07 200.3 179.05 208.43 175.42C216.54 171.81 225.47 170 235.21 170C252.61 170 266.28 173.97 276.25 181.92C286.2 189.87 291.18 200.79 291.18 214.68C291.18 221.41 289.12 227.77 285 233.75C280.88 239.73 274.88 244.58 267.01 248.3C275.31 251.31 281.83 255.88 286.56 261.99C291.29 268.12 293.65 275.69 293.65 284.71C293.65 298.67 288.28 309.85 277.54 318.23C266.8 326.61 252.69 330.8 235.22 330.8C224.98 330.8 215.47 328.85 206.7 324.94C197.93 321.04 191.28 315.63 186.77 308.73C182.26 301.83 180 293.96 180 285.16H216.42C216.42 289.95 218.35 294.12 222.22 297.62C226.09 301.12 230.85 302.88 236.51 302.88C242.88 302.88 247.97 301.1 251.76 297.57C255.55 294.02 257.45 289.49 257.45 283.98C257.45 276.1 255.48 270.51 251.54 267.22C247.6 263.93 242.16 262.28 235.21 262.28H217.6V235.31Z" fill="white"/>
</svg>
