<svg xmlns="http://www.w3.org/2000/svg" xmlns:xlink="http://www.w3.org/1999/xlink" viewBox="0 0 128 128"><path fill="#fff" d="M90,111H37c-5.523,0-10-4.477-10-10V32c0-5.523,4.477-10,10-10h53c5.523,0,10,4.477,10,10v69 C100,106.523,95.523,111,90,111z"/><path fill="#cfcece" d="M47 22L47 34 80 34 80 22"/><path fill="none" stroke="#444b54" stroke-width="6" d="M90,111H37c-5.523,0-10-4.477-10-10V32 c0-5.523,4.477-10,10-10h53c5.523,0,10,4.477,10,10v69C100,106.523,95.523,111,90,111z"/><path fill="none" stroke="#444b54" stroke-linejoin="round" stroke-width="6" d="M47 22H80V34H47z"/><path fill="none" stroke="#444b54" stroke-width="6" d="M64 8A7 7 0 1 0 64 22A7 7 0 1 0 64 8Z"/><path fill="none" stroke="#8ccfb9" stroke-linecap="round" stroke-linejoin="round" stroke-width="6" d="M44 72.029L56.318 83 84 51"/></svg>