<?xml version="1.0" encoding="utf-8"?>
<!-- Generator: Adobe Illustrator 24.3.0, SVG Export Plug-In . SVG Version: 6.00 Build 0)  -->
<svg version="1.1" id="Layer_1" xmlns="http://www.w3.org/2000/svg" xmlns:xlink="http://www.w3.org/1999/xlink" x="0px" y="0px"
	 viewBox="0 0 128 128" style="enable-background:new 0 0 128 128;" xml:space="preserve">
<style type="text/css">
	.st0{fill:#FFFFFF;}
	.st1{fill:#CFCECE;}
	.st2{fill:none;stroke:#444B54;stroke-width:6;}
	.st3{fill:none;stroke:#444B54;stroke-width:6;stroke-linejoin:round;}
</style>
<path class="st0" d="M90,111H37c-5.5,0-10-4.5-10-10V32c0-5.5,4.5-10,10-10h53c5.5,0,10,4.5,10,10v69C100,106.5,95.5,111,90,111z"/>
<path class="st1" d="M47,22v12h33V22"/>
<path class="st2" d="M90,111H37c-5.5,0-10-4.5-10-10V32c0-5.5,4.5-10,10-10h53c5.5,0,10,4.5,10,10v69C100,106.5,95.5,111,90,111z"/>
<path class="st3" d="M47,22h33v12H47V22z"/>
<path class="st2" d="M64,8c-3.9,0-7,3.1-7,7s3.1,7,7,7s7-3.1,7-7S67.9,8,64,8z"/>
</svg>
