<svg xmlns="http://www.w3.org/2000/svg" viewBox="0 0 24 24">
  <path d="M4.2070312 2.7929688L2.7929688 4.2070312L5.0761719 6.4902344C2.1993447 8.8382005 1 12 1 12C1 12 4 20 12 20C14.075568 20 15.806003 19.45473 17.242188 18.65625L19.792969 21.207031L21.207031 19.792969L4.2070312 2.7929688 z M 12 4C10.788 4 9.7057969 4.1997187 8.7167969 4.5117188L11.277344 7.0722656C11.514344 7.0372656 11.753 7 12 7C14.761 7 17 9.239 17 12C17 12.247 16.962734 12.485656 16.927734 12.722656L20.357422 16.152344C22.204422 14.102344 23 12 23 12C23 12 20 4 12 4 z M 7.8339844 9.2480469L9.296875 10.710938C9.1081595 11.100829 9 11.536566 9 12C9 13.657 10.343 15 12 15C12.463434 15 12.899171 14.89184 13.289062 14.703125L14.751953 16.166016C13.962039 16.689758 13.019271 17 12 17C9.239 17 7 14.761 7 12C7 10.980729 7.3102415 10.037961 7.8339844 9.2480469 z" fill="#5B5B5B" />
</svg>