<svg xmlns="http://www.w3.org/2000/svg" viewBox="0 0 50 50">
  <path d="M25.105469 2C24.867188 2 24.625 2.082031 24.433594 2.253906L21.5625 4.816406L17.800781 3.984375C17.300781 3.875 16.796875 4.15625 16.636719 4.644531L15.429688 8.300781L11.761719 9.460938C11.269531 9.613281 10.976563 10.113281 11.078125 10.617188L11.863281 14.386719L9.261719 17.222656C8.914063 17.605469 8.910156 18.183594 9.253906 18.566406L11.816406 21.4375L10.984375 25.199219C10.871094 25.699219 11.15625 26.203125 11.644531 26.363281L15.300781 27.570313L16.457031 31.242188C16.613281 31.730469 17.113281 32.023438 17.613281 31.921875L21.386719 31.136719L24.222656 33.738281C24.414063 33.910156 24.660156 34 24.902344 34C25.136719 34 25.375 33.914063 25.566406 33.746094L28.4375 31.183594L32.199219 32.015625C32.699219 32.125 33.203125 31.839844 33.363281 31.355469L34.566406 27.699219L38.238281 26.542969C38.730469 26.386719 39.023438 25.886719 38.921875 25.386719L38.136719 21.613281L40.738281 18.777344C41.085938 18.394531 41.089844 17.816406 40.746094 17.433594L38.183594 14.5625L39.015625 10.800781C39.128906 10.300781 38.839844 9.796875 38.355469 9.636719L34.699219 8.429688L33.539063 4.757813C33.382813 4.269531 32.886719 3.980469 32.382813 4.078125L28.613281 4.863281L25.777344 2.261719C25.585938 2.089844 25.34375 2 25.105469 2 Z M 25 7C31.066406 7 36 11.933594 36 18C36 24.066406 31.066406 29 25 29C18.933594 29 14 24.066406 14 18C14 11.933594 18.933594 7 25 7 Z M 25 9C20.035156 9 16 13.035156 16 18C16 22.964844 20.035156 27 25 27C29.964844 27 34 22.964844 34 18C34 13.035156 29.964844 9 25 9 Z M 20.792969 33.300781L18.011719 33.878906C17.816406 33.917969 17.617188 33.9375 17.417969 33.9375C16.910156 33.9375 16.425781 33.8125 16 33.582031L16 47C16 47.347656 16.179688 47.667969 16.472656 47.851563C16.769531 48.035156 17.136719 48.046875 17.449219 47.894531L25 44.117188L32.550781 47.894531C32.695313 47.964844 32.847656 48 33 48C33.183594 48 33.367188 47.949219 33.527344 47.851563C33.820313 47.667969 34 47.347656 34 47L34 33.578125C33.535156 33.867188 32.988281 34.039063 32.410156 34.039063C32.199219 34.039063 31.984375 34.015625 31.765625 33.96875L29.003906 33.359375L26.894531 35.242188C26.34375 35.730469 25.636719 36 24.902344 36C24.148438 36 23.429688 35.722656 22.875 35.214844Z" fill="#5B5B5B" />
</svg>