<svg xmlns="http://www.w3.org/2000/svg" xmlns:xlink="http://www.w3.org/1999/xlink" viewBox="0 0 50 50" fill="#5B5B5B">
  <path d="M24 4C22.824219 4 21.691406 4.726563 20.9375 5.90625C20.910156 5.945313 20.867188 5.960938 20.84375 6L9.6875 21.3125C8.570313 22.878906 8 24.699219 8 26.59375L8 36C8 40.945313 12.054688 45 17 45L36 45C37.515625 45 38.769531 44.386719 39.625 43.5625C40.480469 42.738281 41 41.722656 41 40.6875C41 39.832031 40.800781 39.128906 40.59375 38.59375C41.566406 38.070313 43 37.078125 43 34.8125C43 33.386719 42.308594 32.453125 41.625 31.84375C42.308594 31.171875 43 30.183594 43 28.6875C43 26.445313 41.578125 25.527344 40.75 25.09375C40.835938 24.578125 41 23.820313 41 22.90625C41 20.949219 39.152344 19.109375 36.4375 19.09375C36.429688 19.09375 36.414063 19.09375 36.40625 19.09375C33.300781 19.003906 25.800781 19 23.9375 19C24.269531 18.253906 24.511719 17.734375 25.125 16.34375C26.058594 14.226563 27.039063 12.007813 27.34375 11.15625C27.34375 11.152344 27.34375 11.128906 27.34375 11.125C27.613281 10.410156 28 9.703125 28 8.59375C28 7.050781 27.398438 5.847656 26.59375 5.09375C25.789063 4.339844 24.851563 4 24 4 Z M 24 6C24.246094 6 24.796875 6.167969 25.21875 6.5625C25.640625 6.957031 26 7.539063 26 8.59375C26 9.273438 25.796875 9.558594 25.46875 10.4375C25.46875 10.449219 25.46875 10.457031 25.46875 10.46875C25.269531 11.027344 24.25 13.410156 23.3125 15.53125C22.375 17.652344 21.5 19.59375 21.5 19.59375C21.363281 19.902344 21.390625 20.257813 21.574219 20.542969C21.757813 20.824219 22.070313 20.996094 22.40625 21C22.40625 21 33.035156 20.996094 36.375 21.09375C36.386719 21.09375 36.394531 21.09375 36.40625 21.09375C38.269531 21.09375 39 22.273438 39 22.90625C39 23.707031 38.71875 25.4375 38.71875 25.4375C38.644531 25.914063 38.921875 26.371094 39.375 26.53125C39.375 26.53125 41 27.054688 41 28.6875C41 30.152344 39.53125 31.03125 39.53125 31.03125C39.1875 31.214844 38.980469 31.578125 39 31.96875C39.019531 32.355469 39.261719 32.699219 39.625 32.84375C39.625 32.84375 41 33.347656 41 34.8125C41 36.460938 38.9375 37.25 38.9375 37.25C38.640625 37.355469 38.410156 37.597656 38.320313 37.898438C38.226563 38.199219 38.28125 38.527344 38.46875 38.78125C38.46875 38.78125 39 39.5 39 40.6875C39 40.953125 38.769531 41.625 38.25 42.125C37.730469 42.625 36.984375 43 36 43L17 43C13.144531 43 10 39.855469 10 36L10 26.59375C10 25.097656 10.441406 23.730469 11.3125 22.5C11.316406 22.492188 11.308594 22.476563 11.3125 22.46875L22.5 7.09375C22.523438 7.0625 22.542969 7.03125 22.5625 7C23.011719 6.253906 23.617188 6 24 6Z" fill="#fff" />
</svg>