<svg xmlns="http://www.w3.org/2000/svg" viewBox="0 0 50 50">
  <path d="M42.199219 50L4.101563 50C3.28125 50 2.101563 49.429688 2.101563 48.398438C2.101563 48.164063 2.183594 47.9375 2.332031 47.757813C8.601563 40.257813 14.875 32.800781 21.5 24.988281C14.828125 16.808594 2.457031 1.789063 2.328125 1.636719C2.082031 1.335938 2.03125 0.921875 2.195313 0.574219C2.359375 0.222656 2.714844 0 3.101563 0L42 0C42.554688 0 43 0.449219 43 1L43 12.5C43 13.050781 42.554688 13.5 42 13.5L40.699219 13.5C39.675781 13.5 39.046875 13.015625 38.832031 12.054688C38.777344 11.875 38.742188 11.695313 38.714844 11.515625C38.695313 11.417969 38.683594 11.316406 38.652344 11.21875C37.457031 7.230469 37.058594 5.898438 31.898438 5.898438C28.324219 5.980469 22.195313 5.996094 18.9375 6L22.148438 10.214844C25.15625 14.160156 28.105469 18.03125 31.292969 22.191406C31.574219 22.5625 31.566406 23.078125 31.273438 23.4375L16.816406 41L34.421875 41.003906C37.570313 41.003906 39.683594 39.632813 40.878906 36.808594C40.914063 36.691406 41.007813 36.496094 41.105469 36.304688C41.160156 36.195313 41.214844 36.089844 41.253906 35.980469C41.742188 34.300781 43.019531 33.273438 44.660156 33.273438C44.984375 33.273438 45.1875 33.316406 45.1875 33.316406C45.71875 33.429688 46.082031 33.953125 45.980469 34.488281L43.183594 49.1875C43.09375 49.660156 42.679688 50 42.199219 50Z" fill="#5B5B5B" />
</svg>